# xmcd CD database file
#
# Track frame offsets:
#	150
#	13312
#	25914
#	41578
#	54101
#	67437
#	82080
#	96804
#	107878
#	122737
#	135493
#	150150
#	164153
#	176090
#	190039
#	202155
#	216317
#	228894
#	240262
#	253233
#
# Disc length: 3549 seconds
#
# Revision: 0
# Processed by: cddbd v1.5.2PL0 Copyright (c) Steve Scherf et al.
# Submitted via: CDex 1.51
#
DISCID=1d0ddb14
DTITLE=The Quintet of the Hot Club of France - Le Jazz Hot
DYEAR=2005
DGENRE=Jazz
TTITLE0=You're Driving Me Crazy
TTITLE1=Limehouse Blues
TTITLE2=Body And Soul
TTITLE3=Sweet Chorus
TTITLE4=Shine
TTITLE5=When Day Is Done
TTITLE6=Georgia On My Mind
TTITLE7=Swing Guitars
TTITLE8=Stephane's Blues
TTITLE9=Tea For Two
TTITLE10=Sweet Georgia Brown
TTITLE11=Hot Lips
TTITLE12=Tears
TTITLE13=In The Still Of The Night
TTITLE14=Oriental Shuffle
TTITLE15=After You've Gone
TTITLE16=Rose Room
TTITLE17=Exactly Like You
TTITLE18=Charleston
TTITLE19=Ain't Misbehavin'
EXTD=YEAR: 2005
EXTT0=
EXTT1=
EXTT2=
EXTT3=
EXTT4=
EXTT5=
EXTT6=
EXTT7=
EXTT8=
EXTT9=
EXTT10=
EXTT11=
EXTT12=
EXTT13=
EXTT14=
EXTT15=
EXTT16=
EXTT17=
EXTT18=
EXTT19=
PLAYORDER=
